<svg xmlns="http://www.w3.org/2000/svg" xmlns:xlink="http://www.w3.org/1999/xlink" width="122" height="122" viewBox="0 0 122 122">
  <defs>
    <clipPath id="clip-Business_Loan">
      <rect width="122" height="122"/>
    </clipPath>
  </defs>
  <g id="Business_Loan" data-name="Business Loan" clip-path="url(#clip-Business_Loan)">
    <g id="Group_122" data-name="Group 122" transform="translate(-935 -5179)">
      <g id="Group_96" data-name="Group 96" transform="translate(935 5179)">
        <circle id="Ellipse_22" data-name="Ellipse 22" cx="61" cy="61" r="61" fill="#00aae6"/>
      </g>
      <g id="Group_105" data-name="Group 105" transform="translate(964.629 5208.628)">
        <path id="Path_118" data-name="Path 118" d="M535,403.845c.078-.182.161-.361.232-.546a3.45,3.45,0,0,1,3.187-2.255c2.116-.02,4.233-.016,6.349,0a3.535,3.535,0,0,1,2.458,1.065.744.744,0,0,0,.6.144c.505-.137.99-.347,1.491-.531-.269-1.111-.6-2.179-.78-3.271a20.883,20.883,0,0,1,5.576-18.665c2.649-2.814,5.442-5.492,8.19-8.212a.805.805,0,0,0,.238-.994c-.786-2.178-1.545-4.366-2.3-6.556a2.172,2.172,0,0,1,1.13-2.862,2.117,2.117,0,0,1,2.289.318c.887.7,1.363.7,2.19-.063A6.843,6.843,0,0,1,568.708,360H570.3a6.872,6.872,0,0,1,3.252,1.688,1.206,1.206,0,0,0,1.713-.1,2.23,2.23,0,0,1,2.146-.552,2.162,2.162,0,0,1,1.456,2.9q-1.118,3.32-2.3,6.619a.81.81,0,0,0,.222,1q3.2,3.146,6.346,6.346a1.587,1.587,0,0,1,.539.966,1.8,1.8,0,0,1-.562,1.117,1.033,1.033,0,0,1-1.306-.021,3.5,3.5,0,0,1-.493-.454c-2.188-2.186-4.367-4.382-6.574-6.549a1.5,1.5,0,0,0-.935-.406c-2.828-.031-5.657-.027-8.486,0a1.33,1.33,0,0,0-.852.319c-2.879,2.848-5.821,5.639-8.578,8.6-5.033,5.407-6.423,11.737-4.385,18.827a3.85,3.85,0,0,0,.145.4c.013.033.059.052.04.036,1.314-.327,2.576-.722,3.867-.947a14.408,14.408,0,0,1,8.531,1.072c3.111,1.4,6.182,2.9,9.241,4.411a4.488,4.488,0,0,1,2.608,4.463c0,.122-.013.244-.022.365s-.021.239-.047.55c.729-.539,1.376-.951,1.945-1.451q4.72-4.154,9.4-8.351a1.614,1.614,0,0,0,.428-.7,18.764,18.764,0,0,0,.017-11.172c-.059-.195-.121-.388-.174-.584a1.2,1.2,0,0,1,.785-1.556,1.146,1.146,0,0,1,1.5.776,33.86,33.86,0,0,1,.9,3.726,20.762,20.762,0,0,1,.247,3.28c.009,1.072-.112,2.145-.171,3.129a13.948,13.948,0,0,1,2.563-.262,4.31,4.31,0,0,1,3.923,3.014,4.386,4.386,0,0,1-1.085,4.892c-2.522,2.514-5.093,4.979-7.654,7.453-1.829,1.767-3.6,3.6-5.532,5.252a18.012,18.012,0,0,1-11.877,4.415c-10.846.055-21.693.024-32.54.018a3.491,3.491,0,0,1-3.4-2.487c-.038-.109-.1-.212-.144-.318Zm13.146,16.227c.1,0,.217.015.337.015,7.489,0,14.979.023,22.468-.014a15.735,15.735,0,0,0,9.856-3.39,55.8,55.8,0,0,0,4.132-3.795c3.108-2.992,6.19-6.012,9.289-9.013a2.281,2.281,0,0,0,.8-2.238,2.236,2.236,0,0,0-3.826-1.058q-5.935,5.268-11.871,10.536a11.511,11.511,0,0,1-3.86,2.287,9.734,9.734,0,0,1-6.851.171c-2.072-.772-4.212-1.363-6.322-2.034-1.3-.412-2.6-.812-3.889-1.243a1.173,1.173,0,0,1-.851-1.318,1.159,1.159,0,0,1,1.089-1.053,2.532,2.532,0,0,1,.828.161c3.661,1.155,7.318,2.324,10.981,3.474a2.245,2.245,0,0,0,1.685-4.16c-2.946-1.422-5.887-2.856-8.859-4.223a11.7,11.7,0,0,0-7.561-.924c-1.813.407-3.562,1.1-5.333,1.687-.744.246-1.472.539-2.247.826Zm-10.7-8.293q0,3.51,0,7.019c0,.887.384,1.284,1.249,1.287q2.9.01,5.8,0c.868,0,1.254-.4,1.254-1.282q0-7.019,0-14.038c0-.911-.384-1.284-1.31-1.286q-2.838-.006-5.676,0c-.951,0-1.315.374-1.316,1.342Q537.439,408.3,537.443,411.78ZM562.9,363.973c-.017.08-.041.124-.03.155.653,1.88,1.3,3.762,1.981,5.632a.693.693,0,0,0,.537.321c2.767.021,5.534.006,8.3.024a.577.577,0,0,0,.635-.488c.373-1.117.767-2.228,1.152-3.341.262-.758.523-1.517.81-2.349a3.963,3.963,0,0,1-4.746-.718,2.928,2.928,0,0,0-4.05.037A3.881,3.881,0,0,1,562.9,363.973Z" transform="translate(-535 -360)" fill="#fff"/>
        <path id="Path_119" data-name="Path 119" d="M637.242,447.121c-.022-1.029.392-1.561,1.07-1.636a1.246,1.246,0,0,1,1.349,1.129,1.62,1.62,0,0,0,2.361,1.264,1.268,1.268,0,0,0,.842-1.168,1.239,1.239,0,0,0-.877-1.2,3.159,3.159,0,0,0-.953-.161,4.014,4.014,0,0,1-3.754-3.118,3.789,3.789,0,0,1,2.383-4.16.86.86,0,0,0,.394-.5,1.268,1.268,0,0,1,1.215-1.01,1.152,1.152,0,0,1,1.171.962c.059.376.258.485.546.618a3.676,3.676,0,0,1,2.318,3.245,1.22,1.22,0,0,1-1.138,1.391,1.25,1.25,0,0,1-1.292-1.192,1.411,1.411,0,0,0-1.163-1.312,1.676,1.676,0,0,0-1.767.544,1.125,1.125,0,0,0,.247,1.705,2.8,2.8,0,0,0,1.252.376,4.026,4.026,0,0,1,3.823,3.189,3.793,3.793,0,0,1-2.391,4.1.887.887,0,0,0-.393.5,1.235,1.235,0,0,1-2.43-.012.947.947,0,0,0-.453-.522A3.754,3.754,0,0,1,637.242,447.121Z" transform="translate(-606.719 -413.72)" fill="#fff"/>
        <path id="Path_120" data-name="Path 120" d="M702.381,434.45a1.206,1.206,0,0,1,1.244-1.162,1.217,1.217,0,1,1-.109,2.432A1.208,1.208,0,0,1,702.381,434.45Z" transform="translate(-652.443 -411.422)" fill="#fff"/>
      </g>
    </g>
  </g>
</svg>
